G04 #@! TF.FileFunction,Copper,L2,Bot,Signal*
%FSLAX46Y46*%
G04 Gerber Fmt 4.6, Leading zero omitted, Abs format (unit mm)*
G04 Created by KiCad (PCBNEW 4.0.2-stable) date 2017 October 08, Sunday 16:17:20*
%MOMM*%
G01*
G04 APERTURE LIST*
%ADD10C,0.150000*%
%ADD11C,0.300000*%
%ADD12R,1.300000X1.300000*%
%ADD13C,1.300000*%
%ADD14R,1.824000X1.824000*%
%ADD15C,1.924000*%
%ADD16C,1.824000*%
%ADD17C,2.700020*%
%ADD18R,1.797000X1.797000*%
%ADD19C,1.797000*%
%ADD20C,1.097000*%
%ADD21C,1.697000*%
%ADD22R,0.419100X1.470660*%
%ADD23C,1.597000*%
%ADD24C,1.200000*%
%ADD25C,0.354000*%
%ADD26C,0.600000*%
G04 APERTURE END LIST*
D10*
D11*
X58891428Y-88792857D02*
X58677142Y-88864286D01*
X58605714Y-88935714D01*
X58534285Y-89078571D01*
X58534285Y-89292857D01*
X58605714Y-89435714D01*
X58677142Y-89507143D01*
X58820000Y-89578571D01*
X59391428Y-89578571D01*
X59391428Y-88078571D01*
X58891428Y-88078571D01*
X58748571Y-88150000D01*
X58677142Y-88221429D01*
X58605714Y-88364286D01*
X58605714Y-88507143D01*
X58677142Y-88650000D01*
X58748571Y-88721429D01*
X58891428Y-88792857D01*
X59391428Y-88792857D01*
X57891428Y-89578571D02*
X57891428Y-88078571D01*
X57534285Y-88078571D01*
X57320000Y-88150000D01*
X57177142Y-88292857D01*
X57105714Y-88435714D01*
X57034285Y-88721429D01*
X57034285Y-88935714D01*
X57105714Y-89221429D01*
X57177142Y-89364286D01*
X57320000Y-89507143D01*
X57534285Y-89578571D01*
X57891428Y-89578571D01*
X56391428Y-89578571D02*
X56391428Y-88078571D01*
X55891428Y-89150000D01*
X55391428Y-88078571D01*
X55391428Y-89578571D01*
X54748571Y-88221429D02*
X54677142Y-88150000D01*
X54534285Y-88078571D01*
X54177142Y-88078571D01*
X54034285Y-88150000D01*
X53962856Y-88221429D01*
X53891428Y-88364286D01*
X53891428Y-88507143D01*
X53962856Y-88721429D01*
X54819999Y-89578571D01*
X53891428Y-89578571D01*
X53248571Y-88078571D02*
X53248571Y-89292857D01*
X53177143Y-89435714D01*
X53105714Y-89507143D01*
X52962857Y-89578571D01*
X52677143Y-89578571D01*
X52534285Y-89507143D01*
X52462857Y-89435714D01*
X52391428Y-89292857D01*
X52391428Y-88078571D01*
X51748571Y-89507143D02*
X51534285Y-89578571D01*
X51177142Y-89578571D01*
X51034285Y-89507143D01*
X50962856Y-89435714D01*
X50891428Y-89292857D01*
X50891428Y-89150000D01*
X50962856Y-89007143D01*
X51034285Y-88935714D01*
X51177142Y-88864286D01*
X51462856Y-88792857D01*
X51605714Y-88721429D01*
X51677142Y-88650000D01*
X51748571Y-88507143D01*
X51748571Y-88364286D01*
X51677142Y-88221429D01*
X51605714Y-88150000D01*
X51462856Y-88078571D01*
X51105714Y-88078571D01*
X50891428Y-88150000D01*
X49748571Y-88792857D02*
X49534285Y-88864286D01*
X49462857Y-88935714D01*
X49391428Y-89078571D01*
X49391428Y-89292857D01*
X49462857Y-89435714D01*
X49534285Y-89507143D01*
X49677143Y-89578571D01*
X50248571Y-89578571D01*
X50248571Y-88078571D01*
X49748571Y-88078571D01*
X49605714Y-88150000D01*
X49534285Y-88221429D01*
X49462857Y-88364286D01*
X49462857Y-88507143D01*
X49534285Y-88650000D01*
X49605714Y-88721429D01*
X49748571Y-88792857D01*
X50248571Y-88792857D01*
X47320000Y-88078571D02*
X47177143Y-88078571D01*
X47034286Y-88150000D01*
X46962857Y-88221429D01*
X46891428Y-88364286D01*
X46820000Y-88650000D01*
X46820000Y-89007143D01*
X46891428Y-89292857D01*
X46962857Y-89435714D01*
X47034286Y-89507143D01*
X47177143Y-89578571D01*
X47320000Y-89578571D01*
X47462857Y-89507143D01*
X47534286Y-89435714D01*
X47605714Y-89292857D01*
X47677143Y-89007143D01*
X47677143Y-88650000D01*
X47605714Y-88364286D01*
X47534286Y-88221429D01*
X47462857Y-88150000D01*
X47320000Y-88078571D01*
X46177143Y-89435714D02*
X46105715Y-89507143D01*
X46177143Y-89578571D01*
X46248572Y-89507143D01*
X46177143Y-89435714D01*
X46177143Y-89578571D01*
X45534286Y-88221429D02*
X45462857Y-88150000D01*
X45320000Y-88078571D01*
X44962857Y-88078571D01*
X44820000Y-88150000D01*
X44748571Y-88221429D01*
X44677143Y-88364286D01*
X44677143Y-88507143D01*
X44748571Y-88721429D01*
X45605714Y-89578571D01*
X44677143Y-89578571D01*
D12*
X49530000Y-48895000D03*
D13*
X44530000Y-48895000D03*
D14*
X58166000Y-80137000D03*
D15*
X58166000Y-82677000D03*
X55626000Y-80137000D03*
X55626000Y-82677000D03*
X53086000Y-80137000D03*
X53086000Y-82677000D03*
X50546000Y-80137000D03*
X50546000Y-82677000D03*
X48006000Y-80137000D03*
X48006000Y-82677000D03*
D16*
X50800000Y-36449000D03*
X53340000Y-36449000D03*
X53340000Y-34450020D03*
X50800000Y-34450020D03*
D17*
X46070520Y-31750000D03*
X58069480Y-31750000D03*
D18*
X44704000Y-59309000D03*
D19*
X47244000Y-59309000D03*
D20*
X49784000Y-59309000D03*
D21*
X52324000Y-59309000D03*
D19*
X54864000Y-59309000D03*
X57404000Y-59309000D03*
X59944000Y-59309000D03*
X62484000Y-59309000D03*
X65024000Y-59309000D03*
X67564000Y-59309000D03*
X67564000Y-51689000D03*
X65024000Y-51689000D03*
X62484000Y-51689000D03*
X59944000Y-51689000D03*
X57404000Y-51689000D03*
X54864000Y-51689000D03*
X52324000Y-51689000D03*
X49784000Y-51689000D03*
X47244000Y-51689000D03*
X44704000Y-51689000D03*
D16*
X69342000Y-43561000D03*
X69342000Y-46101000D03*
D22*
X63174880Y-68320920D03*
X63825120Y-68320920D03*
X64475360Y-68320920D03*
X65125600Y-68320920D03*
X61234320Y-73914000D03*
X61224160Y-68320920D03*
X61874400Y-68320920D03*
X62524640Y-68320920D03*
X65775840Y-73919080D03*
X65125600Y-73919080D03*
X64475360Y-73919080D03*
X63825120Y-73919080D03*
X63174880Y-73919080D03*
X62524640Y-73919080D03*
X65775840Y-68320920D03*
X61874400Y-73914000D03*
X60573920Y-68320920D03*
X66426080Y-68320920D03*
X66426080Y-73919080D03*
X60573920Y-73919080D03*
X59926220Y-68320920D03*
X67073780Y-68320920D03*
X67073780Y-73919080D03*
X59926220Y-73919080D03*
X42854880Y-68320920D03*
X43505120Y-68320920D03*
X44155360Y-68320920D03*
X44805600Y-68320920D03*
X40914320Y-73914000D03*
X40904160Y-68320920D03*
X41554400Y-68320920D03*
X42204640Y-68320920D03*
X45455840Y-73919080D03*
X44805600Y-73919080D03*
X44155360Y-73919080D03*
X43505120Y-73919080D03*
X42854880Y-73919080D03*
X42204640Y-73919080D03*
X45455840Y-68320920D03*
X41554400Y-73914000D03*
X40253920Y-68320920D03*
X46106080Y-68320920D03*
X46106080Y-73919080D03*
X40253920Y-73919080D03*
X39606220Y-68320920D03*
X46753780Y-68320920D03*
X46753780Y-73919080D03*
X39606220Y-73919080D03*
D14*
X35560000Y-54610000D03*
D15*
X35560000Y-52070000D03*
X35560000Y-49530000D03*
X35560000Y-46990000D03*
X35560000Y-44450000D03*
D16*
X37719000Y-62865000D03*
X47879000Y-62865000D03*
X61087000Y-49530000D03*
X61087000Y-39370000D03*
D23*
X39624000Y-59436000D03*
X39624000Y-54356000D03*
D24*
X44704000Y-59309000D02*
X39751000Y-59309000D01*
D25*
X39751000Y-59309000D02*
X39624000Y-59436000D01*
D26*
X44704000Y-57785000D02*
X48641000Y-57785000D01*
X44704000Y-57785000D02*
X44704000Y-59309000D01*
X47879000Y-62865000D02*
X47879000Y-60833000D01*
X48641000Y-60071000D02*
X48641000Y-57785000D01*
X47879000Y-60833000D02*
X48641000Y-60071000D01*
X32893000Y-52070000D02*
X32893000Y-41529000D01*
X46609000Y-40640000D02*
X50800000Y-36449000D01*
X33782000Y-40640000D02*
X46609000Y-40640000D01*
X32893000Y-41529000D02*
X33782000Y-40640000D01*
D25*
X39606220Y-68320920D02*
X39606220Y-66657220D01*
D26*
X39606220Y-66657220D02*
X38481000Y-65532000D01*
X35560000Y-52070000D02*
X32893000Y-52070000D01*
X37719000Y-66294000D02*
X38481000Y-65532000D01*
X38481000Y-65532000D02*
X44704000Y-59309000D01*
X34417000Y-66294000D02*
X37719000Y-66294000D01*
X32893000Y-64770000D02*
X34417000Y-66294000D01*
X32893000Y-52070000D02*
X32893000Y-64770000D01*
D11*
X59926200Y-68320900D02*
X59926200Y-69460500D01*
D26*
X59926200Y-68320900D02*
X59926200Y-67181300D01*
D11*
X60573900Y-68320900D02*
X60573900Y-69321900D01*
X60435300Y-69460500D02*
X59926200Y-69460500D01*
X60573900Y-69321900D02*
X60435300Y-69460500D01*
D26*
X55609900Y-62865000D02*
X47879000Y-62865000D01*
X59926200Y-67181300D02*
X55609900Y-62865000D01*
X55626000Y-80137000D02*
X55626000Y-79629000D01*
X55626000Y-79629000D02*
X58618600Y-76636400D01*
D11*
X62524600Y-75191100D02*
X62524600Y-73919100D01*
X61079300Y-76636400D02*
X62524600Y-75191100D01*
X58491600Y-76636400D02*
X58618600Y-76636400D01*
X58618600Y-76636400D02*
X61079300Y-76636400D01*
X61041800Y-75886200D02*
X61874400Y-75053600D01*
X57336800Y-75886200D02*
X61041800Y-75886200D01*
D26*
X53086000Y-80137000D02*
X57336800Y-75886200D01*
D11*
X61874400Y-73914000D02*
X61874400Y-75053600D01*
X41554400Y-76225400D02*
X41554400Y-73914000D01*
D26*
X48006000Y-82677000D02*
X41554400Y-76225400D01*
X44704000Y-51689000D02*
X44704000Y-49069000D01*
X44704000Y-49069000D02*
X44530000Y-48895000D01*
D24*
X39624000Y-54356000D02*
X39624000Y-51689000D01*
D25*
X42854880Y-73919080D02*
X42854880Y-75565000D01*
X42854880Y-75565000D02*
X42926000Y-75565000D01*
X43505120Y-73919080D02*
X43505120Y-75565000D01*
X44155360Y-73919080D02*
X44155360Y-75565000D01*
X44155360Y-75565000D02*
X44069000Y-75565000D01*
X44805600Y-73919080D02*
X44805600Y-75565000D01*
X45455840Y-73919080D02*
X45455840Y-75565000D01*
X45455840Y-75565000D02*
X45466000Y-75565000D01*
X46753780Y-73919080D02*
X46753780Y-75547220D01*
X46736000Y-75565000D02*
X46106080Y-75565000D01*
X46753780Y-75547220D02*
X46736000Y-75565000D01*
X46106080Y-73919080D02*
X46106080Y-75565000D01*
X42204640Y-73919080D02*
X42204640Y-75478640D01*
X42204640Y-75478640D02*
X42291000Y-75565000D01*
X42291000Y-75565000D02*
X42926000Y-75565000D01*
X42926000Y-75565000D02*
X43505120Y-75565000D01*
X43505120Y-75565000D02*
X44069000Y-75565000D01*
X44069000Y-75565000D02*
X44805600Y-75565000D01*
X44805600Y-75565000D02*
X45466000Y-75565000D01*
X45466000Y-75565000D02*
X46106080Y-75565000D01*
X66426080Y-68320920D02*
X66426080Y-66548000D01*
X66426080Y-66548000D02*
X66421000Y-66548000D01*
X65775840Y-68320920D02*
X65775840Y-66548000D01*
X65775840Y-66548000D02*
X65786000Y-66548000D01*
X65125600Y-68320920D02*
X65125600Y-66548000D01*
X64475360Y-68320920D02*
X64475360Y-66548000D01*
X63825120Y-68320920D02*
X63825120Y-66603880D01*
X63881000Y-66548000D02*
X64475360Y-66548000D01*
X64475360Y-66548000D02*
X65125600Y-66548000D01*
X65125600Y-66548000D02*
X65786000Y-66548000D01*
X65786000Y-66548000D02*
X66421000Y-66548000D01*
X66421000Y-66548000D02*
X67073780Y-66548000D01*
X63825120Y-66603880D02*
X63881000Y-66548000D01*
X67073780Y-73919080D02*
X67073780Y-71374000D01*
X67073780Y-71374000D02*
X67073800Y-71374000D01*
D26*
X46753780Y-72280780D02*
X46753780Y-71391780D01*
X46753780Y-71391780D02*
X46736000Y-71374000D01*
D25*
X46753780Y-73919080D02*
X46753780Y-72280780D01*
D26*
X46482000Y-69593600D02*
X46482000Y-71120000D01*
X46482000Y-71120000D02*
X46736000Y-71374000D01*
X71120000Y-55626000D02*
X72009000Y-54737000D01*
X71120000Y-47879000D02*
X69342000Y-46101000D01*
X72009000Y-48768000D02*
X71120000Y-47879000D01*
X72009000Y-54737000D02*
X72009000Y-48768000D01*
X69342000Y-46101000D02*
X68707000Y-46101000D01*
X68707000Y-46101000D02*
X67564000Y-44958000D01*
X67564000Y-44958000D02*
X61849000Y-44958000D01*
X61849000Y-44958000D02*
X57404000Y-40513000D01*
X57404000Y-40513000D02*
X57404000Y-34925000D01*
X57404000Y-34925000D02*
X54737000Y-32258000D01*
X54737000Y-32258000D02*
X52992020Y-32258000D01*
X52992020Y-32258000D02*
X50800000Y-34450020D01*
D25*
X61234320Y-73914000D02*
X61234320Y-71374000D01*
D26*
X49403000Y-71374000D02*
X49403000Y-78740000D01*
X49403000Y-78740000D02*
X48006000Y-80137000D01*
X44704000Y-51689000D02*
X44704000Y-55245000D01*
X45085000Y-55626000D02*
X71120000Y-55626000D01*
X44704000Y-55245000D02*
X45085000Y-55626000D01*
X67073780Y-68320920D02*
X67073780Y-69460500D01*
X67073780Y-69460500D02*
X67073800Y-69460500D01*
X67073780Y-68320920D02*
X67073780Y-66548000D01*
X67073780Y-66548000D02*
X67073780Y-64625220D01*
X67073780Y-64625220D02*
X71120000Y-60579000D01*
X71120000Y-60579000D02*
X71120000Y-55626000D01*
X40914300Y-71374000D02*
X46736000Y-71374000D01*
X46736000Y-71374000D02*
X47371000Y-71374000D01*
X47371000Y-71374000D02*
X49403000Y-71374000D01*
X49403000Y-71374000D02*
X61234320Y-71374000D01*
X61234320Y-71374000D02*
X67073800Y-71374000D01*
D11*
X46753800Y-68320900D02*
X46753800Y-69460500D01*
X46348900Y-69460500D02*
X46482000Y-69593600D01*
X46482000Y-69593600D02*
X46106100Y-69217700D01*
X46753800Y-69460500D02*
X46348900Y-69460500D01*
X46106100Y-69217700D02*
X46106100Y-68320900D01*
D26*
X37719000Y-51689000D02*
X39624000Y-51689000D01*
D24*
X39624000Y-51689000D02*
X44704000Y-51689000D01*
D26*
X35560000Y-49530000D02*
X37719000Y-51689000D01*
D11*
X40914300Y-73914000D02*
X40914300Y-72774400D01*
X40253900Y-68320900D02*
X40253900Y-69321900D01*
X40253900Y-69321900D02*
X40901500Y-69969500D01*
D26*
X67073800Y-69460500D02*
X67073800Y-71374000D01*
D11*
X40901500Y-69969500D02*
X40914300Y-69982300D01*
D26*
X40914300Y-69982300D02*
X40914300Y-71374000D01*
D11*
X40914300Y-71374000D02*
X40914300Y-72774400D01*
D26*
X58166000Y-82677000D02*
X63754000Y-82677000D01*
D25*
X63825120Y-77922120D02*
X63825120Y-73919080D01*
X63881000Y-77978000D02*
X63825120Y-77922120D01*
D26*
X63881000Y-77851000D02*
X63881000Y-77978000D01*
X63881000Y-82550000D02*
X63881000Y-77851000D01*
X63754000Y-82677000D02*
X63881000Y-82550000D01*
X58166000Y-80137000D02*
X58166000Y-78820700D01*
D11*
X63174900Y-73919100D02*
X63174900Y-75058700D01*
X63174900Y-75387600D02*
X63174900Y-75058700D01*
X59741800Y-78820700D02*
X63174900Y-75387600D01*
D26*
X58166000Y-78820700D02*
X59741800Y-78820700D01*
X39624000Y-75058700D02*
X39624000Y-78359000D01*
X48514000Y-84709000D02*
X50546000Y-82677000D01*
X45974000Y-84709000D02*
X48514000Y-84709000D01*
X39624000Y-78359000D02*
X45974000Y-84709000D01*
X59926200Y-75058700D02*
X60573900Y-75058700D01*
D11*
X39606200Y-75058700D02*
X39624000Y-75058700D01*
D26*
X39624000Y-75058700D02*
X40253900Y-75058700D01*
D11*
X39606200Y-73919100D02*
X39606200Y-75058700D01*
X40253900Y-73919100D02*
X40253900Y-75058700D01*
X59926200Y-73919100D02*
X59926200Y-75058700D01*
X60573900Y-73919100D02*
X60573900Y-75058700D01*
D26*
X50546000Y-82677000D02*
X50546000Y-80137000D01*
X55624300Y-75058700D02*
X59926200Y-75058700D01*
X50546000Y-80137000D02*
X55624300Y-75058700D01*
D11*
X61874400Y-63779400D02*
X61874400Y-68320900D01*
D26*
X57404000Y-59309000D02*
X61874400Y-63779400D01*
D11*
X61224200Y-65669200D02*
X61224200Y-68320900D01*
D26*
X54864000Y-59309000D02*
X61224200Y-65669200D01*
D25*
X47244000Y-59309000D02*
X47244000Y-59817000D01*
X40904160Y-66156840D02*
X40904160Y-68320920D01*
D26*
X47244000Y-59817000D02*
X40904160Y-66156840D01*
X62484000Y-59309000D02*
X62484000Y-60071000D01*
D25*
X63174880Y-65349120D02*
X63754000Y-64770000D01*
X63754000Y-64770000D02*
X63881000Y-64770000D01*
X63174880Y-65349120D02*
X63174880Y-68320920D01*
D26*
X63881000Y-61468000D02*
X63881000Y-64770000D01*
X62484000Y-60071000D02*
X63881000Y-61468000D01*
D11*
X62524600Y-61889600D02*
X62524600Y-68320900D01*
D26*
X59944000Y-59309000D02*
X62524600Y-61889600D01*
X61087000Y-39370000D02*
X61087000Y-41148000D01*
X63500000Y-43561000D02*
X69342000Y-43561000D01*
X61087000Y-41148000D02*
X63500000Y-43561000D01*
X52324000Y-59309000D02*
X52324000Y-56896000D01*
X52197000Y-56642000D02*
X36445000Y-56642000D01*
X36318000Y-56515000D02*
X36445000Y-56642000D01*
X37719000Y-62865000D02*
X37719000Y-57916000D01*
X35729300Y-55926300D02*
X36445000Y-56642000D01*
X36445000Y-56642000D02*
X37719000Y-57916000D01*
D11*
X35560000Y-55926300D02*
X35729300Y-55926300D01*
D26*
X35560000Y-54610000D02*
X35560000Y-55926300D01*
X51435000Y-46990000D02*
X35560000Y-46990000D01*
X53551178Y-49829169D02*
X51435000Y-46990000D01*
X54864000Y-51689000D02*
X53551178Y-49829169D01*
X57404000Y-51689000D02*
X57150000Y-51689000D01*
X51435000Y-44450000D02*
X35560000Y-44450000D01*
X54610000Y-48260000D02*
X51435000Y-44450000D01*
X57150000Y-51689000D02*
X54610000Y-48260000D01*
X67564000Y-51689000D02*
X65405000Y-49530000D01*
X65405000Y-49530000D02*
X61087000Y-49530000D01*
X52324000Y-51689000D02*
X52324000Y-51054000D01*
X52324000Y-51054000D02*
X50165000Y-48895000D01*
X50165000Y-48895000D02*
X49530000Y-48895000D01*
X69342000Y-52070000D02*
X69342000Y-52578000D01*
X69342000Y-51308000D02*
X69342000Y-52070000D01*
X49784000Y-51689000D02*
X49784000Y-53213000D01*
X53561462Y-44381574D02*
X53340000Y-36449000D01*
X54214159Y-45522862D02*
X53561462Y-44381574D01*
X56261000Y-48006000D02*
X54214159Y-45522862D01*
X66040000Y-48006000D02*
X56261000Y-48006000D01*
X68961000Y-50927000D02*
X66040000Y-48006000D01*
X49911000Y-53340000D02*
X68072000Y-53340000D01*
X49784000Y-53213000D02*
X49911000Y-53340000D01*
X68961000Y-50927000D02*
X69342000Y-51308000D01*
X68580000Y-53340000D02*
X68072000Y-53340000D01*
X69342000Y-52578000D02*
X68580000Y-53340000D01*
X68580000Y-54483000D02*
X70104000Y-54483000D01*
X55626000Y-44196000D02*
X55626000Y-35560000D01*
X55626000Y-35560000D02*
X54516020Y-34450020D01*
X53340000Y-34450020D02*
X54516020Y-34450020D01*
X66421000Y-46736000D02*
X66040000Y-46355000D01*
X66040000Y-46355000D02*
X57785000Y-46355000D01*
X57785000Y-46355000D02*
X55626000Y-44196000D01*
X47244000Y-54610000D02*
X47244000Y-51689000D01*
X67564000Y-48006000D02*
X66421000Y-46863000D01*
X69342000Y-48006000D02*
X67564000Y-48006000D01*
X69977000Y-48641000D02*
X69342000Y-48006000D01*
X47371000Y-54483000D02*
X68580000Y-54483000D01*
X47244000Y-54610000D02*
X47371000Y-54483000D01*
X66421000Y-46863000D02*
X66421000Y-46736000D01*
X70485000Y-49149000D02*
X69977000Y-48641000D01*
X70485000Y-54102000D02*
X70485000Y-49149000D01*
X70104000Y-54483000D02*
X70485000Y-54102000D01*
M02*
