G04 #@! TF.FileFunction,Legend,Bot*
%FSLAX46Y46*%
G04 Gerber Fmt 4.6, Leading zero omitted, Abs format (unit mm)*
G04 Created by KiCad (PCBNEW 4.0.2-stable) date 2017 October 08, Sunday 16:17:03*
%MOMM*%
G01*
G04 APERTURE LIST*
%ADD10C,0.150000*%
%ADD11C,0.127000*%
%ADD12C,0.119380*%
%ADD13C,0.149860*%
G04 APERTURE END LIST*
D10*
D11*
X67437000Y-73406000D02*
X59563000Y-73406000D01*
X59563000Y-73406000D02*
X59563000Y-68834000D01*
X59563000Y-68834000D02*
X67437000Y-68834000D01*
X67437000Y-68834000D02*
X67437000Y-73406000D01*
X60608981Y-69596000D02*
G75*
G03X60608981Y-69596000I-283981J0D01*
G01*
X47117000Y-73406000D02*
X39243000Y-73406000D01*
X39243000Y-73406000D02*
X39243000Y-68834000D01*
X39243000Y-68834000D02*
X47117000Y-68834000D01*
X47117000Y-68834000D02*
X47117000Y-73406000D01*
X40288981Y-69596000D02*
G75*
G03X40288981Y-69596000I-283981J0D01*
G01*
D12*
X64109600Y-70173850D02*
X64109600Y-70821550D01*
X64071500Y-70897750D01*
X64033400Y-70935850D01*
X63957200Y-70973950D01*
X63804800Y-70973950D01*
X63728600Y-70935850D01*
X63690500Y-70897750D01*
X63652400Y-70821550D01*
X63652400Y-70173850D01*
X63309500Y-70250050D02*
X63271400Y-70211950D01*
X63195200Y-70173850D01*
X63004700Y-70173850D01*
X62928500Y-70211950D01*
X62890400Y-70250050D01*
X62852300Y-70326250D01*
X62852300Y-70402450D01*
X62890400Y-70516750D01*
X63347600Y-70973950D01*
X62852300Y-70973950D01*
D13*
X68885042Y-72424230D02*
X68742076Y-72471885D01*
X68503800Y-72471885D01*
X68408490Y-72424230D01*
X68360834Y-72376574D01*
X68313179Y-72281264D01*
X68313179Y-72185953D01*
X68360834Y-72090643D01*
X68408490Y-72042988D01*
X68503800Y-71995332D01*
X68694421Y-71947677D01*
X68789732Y-71900022D01*
X68837387Y-71852367D01*
X68885042Y-71757056D01*
X68885042Y-71661746D01*
X68837387Y-71566435D01*
X68789732Y-71518780D01*
X68694421Y-71471125D01*
X68456145Y-71471125D01*
X68313179Y-71518780D01*
X67884282Y-72471885D02*
X67884282Y-71471125D01*
X67312419Y-72471885D01*
X67312419Y-71471125D01*
X66931177Y-71471125D02*
X66264004Y-71471125D01*
X66692901Y-72471885D01*
X65453865Y-71804711D02*
X65453865Y-72471885D01*
X65692141Y-71423470D02*
X65930417Y-72138298D01*
X65310899Y-72138298D01*
X64453104Y-72471885D02*
X64929657Y-72471885D01*
X64929657Y-71471125D01*
X64262484Y-71471125D02*
X63928897Y-72471885D01*
X63595310Y-71471125D01*
X62689861Y-72376574D02*
X62737516Y-72424230D01*
X62880482Y-72471885D01*
X62975792Y-72471885D01*
X63118758Y-72424230D01*
X63214069Y-72328919D01*
X63261724Y-72233609D01*
X63309379Y-72042988D01*
X63309379Y-71900022D01*
X63261724Y-71709401D01*
X63214069Y-71614090D01*
X63118758Y-71518780D01*
X62975792Y-71471125D01*
X62880482Y-71471125D01*
X62737516Y-71518780D01*
X62689861Y-71566435D01*
X62117998Y-71900022D02*
X62213309Y-71852367D01*
X62260964Y-71804711D01*
X62308619Y-71709401D01*
X62308619Y-71661746D01*
X62260964Y-71566435D01*
X62213309Y-71518780D01*
X62117998Y-71471125D01*
X61927377Y-71471125D01*
X61832067Y-71518780D01*
X61784411Y-71566435D01*
X61736756Y-71661746D01*
X61736756Y-71709401D01*
X61784411Y-71804711D01*
X61832067Y-71852367D01*
X61927377Y-71900022D01*
X62117998Y-71900022D01*
X62213309Y-71947677D01*
X62260964Y-71995332D01*
X62308619Y-72090643D01*
X62308619Y-72281264D01*
X62260964Y-72376574D01*
X62213309Y-72424230D01*
X62117998Y-72471885D01*
X61927377Y-72471885D01*
X61832067Y-72424230D01*
X61784411Y-72376574D01*
X61736756Y-72281264D01*
X61736756Y-72090643D01*
X61784411Y-71995332D01*
X61832067Y-71947677D01*
X61927377Y-71900022D01*
X61450825Y-71471125D02*
X60878962Y-71471125D01*
X61164893Y-72471885D02*
X61164893Y-71471125D01*
X60593030Y-71566435D02*
X60545375Y-71518780D01*
X60450064Y-71471125D01*
X60211788Y-71471125D01*
X60116478Y-71518780D01*
X60068822Y-71566435D01*
X60021167Y-71661746D01*
X60021167Y-71757056D01*
X60068822Y-71900022D01*
X60640685Y-72471885D01*
X60021167Y-72471885D01*
X59163373Y-71804711D02*
X59163373Y-72471885D01*
X59401649Y-71423470D02*
X59639925Y-72138298D01*
X59020407Y-72138298D01*
X58162612Y-71471125D02*
X58639165Y-71471125D01*
X58686820Y-71947677D01*
X58639165Y-71900022D01*
X58543854Y-71852367D01*
X58305578Y-71852367D01*
X58210268Y-71900022D01*
X58162612Y-71947677D01*
X58114957Y-72042988D01*
X58114957Y-72281264D01*
X58162612Y-72376574D01*
X58210268Y-72424230D01*
X58305578Y-72471885D01*
X58543854Y-72471885D01*
X58639165Y-72424230D01*
X58686820Y-72376574D01*
D12*
X43789600Y-70173850D02*
X43789600Y-70821550D01*
X43751500Y-70897750D01*
X43713400Y-70935850D01*
X43637200Y-70973950D01*
X43484800Y-70973950D01*
X43408600Y-70935850D01*
X43370500Y-70897750D01*
X43332400Y-70821550D01*
X43332400Y-70173850D01*
X43027600Y-70173850D02*
X42532300Y-70173850D01*
X42799000Y-70478650D01*
X42684700Y-70478650D01*
X42608500Y-70516750D01*
X42570400Y-70554850D01*
X42532300Y-70631050D01*
X42532300Y-70821550D01*
X42570400Y-70897750D01*
X42608500Y-70935850D01*
X42684700Y-70973950D01*
X42913300Y-70973950D01*
X42989500Y-70935850D01*
X43027600Y-70897750D01*
D13*
X48565042Y-72424230D02*
X48422076Y-72471885D01*
X48183800Y-72471885D01*
X48088490Y-72424230D01*
X48040834Y-72376574D01*
X47993179Y-72281264D01*
X47993179Y-72185953D01*
X48040834Y-72090643D01*
X48088490Y-72042988D01*
X48183800Y-71995332D01*
X48374421Y-71947677D01*
X48469732Y-71900022D01*
X48517387Y-71852367D01*
X48565042Y-71757056D01*
X48565042Y-71661746D01*
X48517387Y-71566435D01*
X48469732Y-71518780D01*
X48374421Y-71471125D01*
X48136145Y-71471125D01*
X47993179Y-71518780D01*
X47564282Y-72471885D02*
X47564282Y-71471125D01*
X46992419Y-72471885D01*
X46992419Y-71471125D01*
X46611177Y-71471125D02*
X45944004Y-71471125D01*
X46372901Y-72471885D01*
X45133865Y-71804711D02*
X45133865Y-72471885D01*
X45372141Y-71423470D02*
X45610417Y-72138298D01*
X44990899Y-72138298D01*
X44133104Y-72471885D02*
X44609657Y-72471885D01*
X44609657Y-71471125D01*
X43942484Y-71471125D02*
X43608897Y-72471885D01*
X43275310Y-71471125D01*
X42369861Y-72376574D02*
X42417516Y-72424230D01*
X42560482Y-72471885D01*
X42655792Y-72471885D01*
X42798758Y-72424230D01*
X42894069Y-72328919D01*
X42941724Y-72233609D01*
X42989379Y-72042988D01*
X42989379Y-71900022D01*
X42941724Y-71709401D01*
X42894069Y-71614090D01*
X42798758Y-71518780D01*
X42655792Y-71471125D01*
X42560482Y-71471125D01*
X42417516Y-71518780D01*
X42369861Y-71566435D01*
X41797998Y-71900022D02*
X41893309Y-71852367D01*
X41940964Y-71804711D01*
X41988619Y-71709401D01*
X41988619Y-71661746D01*
X41940964Y-71566435D01*
X41893309Y-71518780D01*
X41797998Y-71471125D01*
X41607377Y-71471125D01*
X41512067Y-71518780D01*
X41464411Y-71566435D01*
X41416756Y-71661746D01*
X41416756Y-71709401D01*
X41464411Y-71804711D01*
X41512067Y-71852367D01*
X41607377Y-71900022D01*
X41797998Y-71900022D01*
X41893309Y-71947677D01*
X41940964Y-71995332D01*
X41988619Y-72090643D01*
X41988619Y-72281264D01*
X41940964Y-72376574D01*
X41893309Y-72424230D01*
X41797998Y-72471885D01*
X41607377Y-72471885D01*
X41512067Y-72424230D01*
X41464411Y-72376574D01*
X41416756Y-72281264D01*
X41416756Y-72090643D01*
X41464411Y-71995332D01*
X41512067Y-71947677D01*
X41607377Y-71900022D01*
X41130825Y-71471125D02*
X40558962Y-71471125D01*
X40844893Y-72471885D02*
X40844893Y-71471125D01*
X40273030Y-71566435D02*
X40225375Y-71518780D01*
X40130064Y-71471125D01*
X39891788Y-71471125D01*
X39796478Y-71518780D01*
X39748822Y-71566435D01*
X39701167Y-71661746D01*
X39701167Y-71757056D01*
X39748822Y-71900022D01*
X40320685Y-72471885D01*
X39701167Y-72471885D01*
X38843373Y-71804711D02*
X38843373Y-72471885D01*
X39081649Y-71423470D02*
X39319925Y-72138298D01*
X38700407Y-72138298D01*
X37842612Y-71471125D02*
X38319165Y-71471125D01*
X38366820Y-71947677D01*
X38319165Y-71900022D01*
X38223854Y-71852367D01*
X37985578Y-71852367D01*
X37890268Y-71900022D01*
X37842612Y-71947677D01*
X37794957Y-72042988D01*
X37794957Y-72281264D01*
X37842612Y-72376574D01*
X37890268Y-72424230D01*
X37985578Y-72471885D01*
X38223854Y-72471885D01*
X38319165Y-72424230D01*
X38366820Y-72376574D01*
M02*
